<?xml version="1.0" encoding="UTF-8" standalone="no"?>
<!-- Creator: CorelDRAW -->
<svg xmlns:rdf="http://www.w3.org/1999/02/22-rdf-syntax-ns#" style="shape-rendering:geometricPrecision;text-rendering:geometricPrecision;image-rendering:optimizeQuality;clip-rule:evenodd;fill-rule:evenodd" xmlns="http://www.w3.org/2000/svg" xml:space="preserve" height="1026" width="1050" version="1.1" xmlns:cc="http://creativecommons.org/ns#" xmlns:dc="http://purl.org/dc/elements/1.1/" viewBox="0 0 296.33334 289.56001"><metadata><rdf:RDF><cc:Work rdf:about=""><dc:format>image/svg+xml</dc:format><dc:type rdf:resource="http://purl.org/dc/dcmitype/StillImage"/><dc:title/></cc:Work></rdf:RDF></metadata>
 <defs>
  <style type="text/css">
   <![CDATA[
    .str2 {stroke:#1F1A17;stroke-width:0.0762}
    .str7 {stroke:white;stroke-width:0.3528}
    .str10 {stroke:white;stroke-width:0.3528;stroke-linejoin:bevel}
    .str5 {stroke:white;stroke-width:0.5292}
    .str9 {stroke:white;stroke-width:0.5292;stroke-linejoin:bevel}
    .str6 {stroke:white;stroke-width:0.7055}
    .str14 {stroke:#1F1A17;stroke-width:0.7056}
    .str13 {stroke:#1F1A17;stroke-width:0.7056;stroke-linejoin:bevel}
    .str3 {stroke:white;stroke-width:0.7056}
    .str4 {stroke:white;stroke-width:1.4111}
    .str12 {stroke:#F8C300;stroke-width:2.1167}
    .str8 {stroke:white;stroke-width:2.1167;stroke-linejoin:round}
    .str11 {stroke:#F6BB00;stroke-width:2.1167}
    .str15 {stroke:#0A0B0C;stroke-width:2.8222}
    .str16 {stroke:#0A0B0C;stroke-width:2.8222;stroke-linejoin:bevel}
    .str1 {stroke:#F6BB00;stroke-width:2.8222}
    .str0 {stroke:#0A0B0C;stroke-width:3.3514}
    .fil2 {fill:none}
    .fil6 {fill:#1F1A17}
    .fil3 {fill:white}
    .fil9 {fill:#007D3C}
    .fil0 {fill:#0094BB}
    .fil1 {fill:#00AA90}
    .fil7 {fill:#551D35}
    .fil5 {fill:#6C3C23}
    .fil8 {fill:#C0A062}
    .fil10 {fill:#F6BB00}
    .fil4 {fill:#DA251D;fill-rule:nonzero}
   ]]>
  </style>
 </defs>
 <g transform="translate(-.4220782 -39.9674)">
  <path style="stroke:#0a0b0c;stroke-width:3.3514;fill:#0094bb" class="fil0 str0" d="m256.43 210.126c0 45.8011-47.9762 82.944-107.136 82.944s-107.136-37.1429-107.136-82.944v-165.12h214.272v165.12z"/>
  <path style="fill:#00aa90" class="fil1" d="m102.35 213.87h94.752c.192 4.768-.768 9.248-4.896 11.712-10.5452 3.8842-32.982 13.9148-41.856 13.92-8.7811.005-39.328-11.808-43.008-14.4-3.008-2.112-5.44-4.224-4.992-11.232z"/>
  <path style="stroke:#f6bb00;stroke-width:2.8222;fill:none" class="fil2 str1" d="m197.102 213.87c.192 4.768-.768 9.248-4.896 11.712-10.5452 3.8842-32.982 13.9149-41.856 13.92-8.781.005-39.328-11.808-43.008-14.4-3.008-2.112-5.44-4.224-4.992-11.232v-66.672c0-3.5919 3.1839-7.1411 5.9544-7.152h81.7896c3.3359-.0145 7.008 4.012 7.008 7.104v66.72z"/>
  <rect style="stroke:#0a0b0c;stroke-width:3.3514;fill:#ffffff" class="fil3 str0" height="36.48" width="214.272" y="45.006" x="42.158"/>
  <polygon style="fill-rule:nonzero;fill:#da251d" points="51.9737 73.5577 51.9737 53.3775 55.945 53.3775 55.945 61.219 57.7054 53.3775 61.4321 53.3775 59.16 62.4869 61.6477 73.5577 57.5477 73.5577 55.945 64.9078 55.945 73.5577" class="fil4"/>
  <path d="m71.0579 65.1929c0 2.0295-.0354 3.4633-.1062 4.3058-.074.8467-.2993 1.6168-.6791 2.3146-.3797.6977-.8946 1.2338-1.5415 1.6082-.6469.3745-1.4031.5617-2.2624.5617-.8174 0-1.5512-.1787-2.2013-.5319-.6533-.3531-1.1747-.8807-1.5705-1.587s-.6308-1.4764-.708-2.306c-.074-.834-.1127-2.2891-.1127-4.3654v-3.4506c0-2.0295.0355-3.4633.1095-4.31.0708-.8425.296-1.6126.6791-2.3104.3797-.6977.8914-1.2338 1.5415-1.6082.6468-.3745 1.3999-.5617 2.2624-.5617.8175 0 1.5512.1787 2.2013.5319.65.3531 1.1746.8807 1.5705 1.587.3958.7063.6307 1.4764.7048 2.306.0772.834.1126 2.2848.1126 4.3654v3.4506zm-3.9681-6.6289c0-.9403-.0386-1.5402-.1191-1.804-.0772-.2595-.2381-.3914-.4827-.3914-.2092 0-.3669.1063-.4763.3191-.1126.2085-.1674.8339-.1674 1.8763v9.42c0 1.1743.0387 1.8976.1095 2.1699.0708.2766.2413.4127.5052.4127.2704 0 .4409-.1574.5182-.4723.074-.3191.1126-1.0679.1126-2.2592v-9.2711z" style="fill-rule:nonzero;fill:#da251d" class="fil4"/>
  <polygon style="fill-rule:nonzero;fill:#da251d" points="74.2086 73.5577 74.2086 57.4152 71.8592 57.4152 71.8592 53.3775 80.5324 53.3775 80.5324 57.4152 78.1767 57.4152 78.1767 73.5577" class="fil4"/>
  <path d="m87.5224 53.3775 2.2721 20.1802h-4.0646l-.1963-3.6293h-1.4257l-.2349 3.6293h-4.1097l2.0178-20.1802h5.7413zm-2.1015 12.9769c-.2027-2.2848-.4022-5.1099-.605-8.4669-.4023 3.8591-.6533 6.6799-.7531 8.4669h1.3581z" style="fill-rule:nonzero;fill:#da251d" class="fil4"/>
  <polygon style="fill-rule:nonzero;fill:#da251d" points="95.5488 73.5577 95.5488 57.4152 93.1994 57.4152 93.1994 53.3775 101.873 53.3775 101.873 57.4152 99.5169 57.4152 99.5169 73.5577" class="fil4"/>
  <path d="m108.863 53.3775 2.2721 20.1802h-4.0646l-.1963-3.6293h-1.4257l-.2349 3.6293h-4.1097l2.0178-20.1802h5.7413zm-2.1015 12.9769c-.2027-2.2848-.4022-5.1099-.605-8.4669-.4023 3.8591-.6533 6.6799-.7531 8.4669h1.3581z" style="fill-rule:nonzero;fill:#da251d" class="fil4"/>
  <polygon style="fill-rule:nonzero;fill:#da251d" points="117.359 62.4656 117.359 53.3775 120.677 53.3775 120.677 73.5577 117.198 73.5577 115.132 64.3845 115.132 73.5577 111.814 73.5577 111.814 53.3775 115.132 53.3775" class="fil4"/>
  <path d="m131.378 60.8063h-3.9682v-1.8338c0-1.1531-.0386-1.8764-.1126-2.1699-.0773-.2894-.2543-.434-.5375-.434-.2478 0-.4119.1234-.502.3744-.0869.2468-.132.8892-.132 1.9189v9.6838c0 .9062.0451 1.5019.132 1.7912.0901.2851.2639.4297.5278.4297.2896 0 .4859-.1617.5921-.485.103-.3276.1546-.9573.1546-1.8976v-2.3912h-.8014v-3.0677h4.6472v10.8326h-2.4974l-.367-1.4466c-.2703.6254-.6114 1.0892-1.0233 1.4041-.412.3105-.8979.468-1.4579.468-.6662 0-1.2905-.217-1.8698-.6425-.5825-.4297-1.0234-.9573-1.3259-1.5913-.3025-.6297-.4892-1.2934-.5664-1.9869-.074-.6935-.1127-1.736-.1127-3.123v-5.9949c0-1.9274.0773-3.3272.2349-4.1994.1578-.8765.6083-1.6764 1.355-2.3997.7434-.7276 1.7056-1.0935 2.8899-1.0935 1.1618 0 2.1273.3149 2.8932.9488.766.6297 1.268 1.3828 1.4997 2.2508.2318.868.3477 2.1274.3477 3.7824v.8723z" style="fill-rule:nonzero;fill:#da251d" class="fil4"/>
  <polygon style="fill-rule:nonzero;fill:#da251d" points="136.887 61.2402 139.365 61.2402 139.365 65.0823 136.887 65.0823 136.887 69.52 139.8 69.52 139.8 73.5577 132.916 73.5577 132.916 53.3775 139.536 53.3775 139.536 57.4152 136.887 57.4152" class="fil4"/>
  <path d="m140.939 53.3775h2.8095c1.873 0 3.141.0936 3.804.2851.6629.1914 1.2036.6807 1.622 1.4636.4183.7871.6275 2.038.6275 3.7612 0 1.57-.148 2.6252-.4441 3.1655-.2928.5404-.8753.8637-1.7443.9701.7853.2595 1.3163.6042 1.5867 1.0381.267.4298.4376.8255.502 1.1871.0676.3617.0997 1.3573.0997 2.9868v5.3227h-3.6849v-6.7055c0-1.0807-.0675-1.7487-.1963-2.0082-.1287-.2553-.4666-.3872-1.0105-.3872v9.1009h-3.9713v-20.1802zm3.9713 3.4506v4.4887c.4442 0 .7563-.0808.9365-.2425s.2703-.6893.2703-1.5785v-1.1062c0-.6425-.0868-1.0595-.2606-1.2594-.1738-.2-.4892-.3021-.9462-.3021z" style="fill-rule:nonzero;fill:#da251d" class="fil4"/>
  <path d="m158.192 53.3775 2.2721 20.1802h-4.0646l-.1963-3.6293h-1.4257l-.2349 3.6293h-4.1097l2.0178-20.1802h5.7413zm-2.1015 12.9769c-.2027-2.2848-.4022-5.1099-.605-8.4669-.4023 3.8591-.6533 6.6799-.7531 8.4669h1.3581z" style="fill-rule:nonzero;fill:#da251d" class="fil4"/>
  <polygon style="fill-rule:nonzero;fill:#da251d" points="166.688 62.4656 166.688 53.3775 170.006 53.3775 170.006 73.5577 166.527 73.5577 164.461 64.3845 164.461 73.5577 161.143 73.5577 161.143 53.3775 164.461 53.3775" class="fil4"/>
  <path d="m180.707 60.8063h-3.9682v-1.8338c0-1.1531-.0386-1.8764-.1126-2.1699-.0773-.2894-.2543-.434-.5375-.434-.2478 0-.4119.1234-.502.3744-.0869.2468-.132.8892-.132 1.9189v9.6838c0 .9062.0451 1.5019.132 1.7912.0901.2851.2639.4297.5278.4297.2896 0 .4859-.1617.5921-.485.103-.3276.1546-.9573.1546-1.8976v-2.3912h-.8014v-3.0677h4.6472v10.8326h-2.4974l-.367-1.4466c-.2703.6254-.6114 1.0892-1.0233 1.4041-.412.3105-.8979.468-1.4579.468-.6662 0-1.2905-.217-1.8698-.6425-.5825-.4297-1.0234-.9573-1.3259-1.5913-.3025-.6297-.4892-1.2934-.5664-1.9869-.074-.6935-.1127-1.736-.1127-3.123v-5.9949c0-1.9274.0773-3.3272.2349-4.1994.1578-.8765.6083-1.6764 1.355-2.3997.7434-.7276 1.7056-1.0935 2.8899-1.0935 1.1618 0 2.1273.3149 2.8932.9488.766.6297 1.268 1.3828 1.4997 2.2508.2318.868.3477 2.1274.3477 3.7824v.8723z" style="fill-rule:nonzero;fill:#da251d" class="fil4"/>
  <path d="m194.059 59.483h-3.6849v-1.4934c0-.6977-.0483-1.1445-.1416-1.336-.0934-.1914-.2511-.285-.4731-.285-.2382 0-.4184.1276-.5406.3872-.1224.2552-.1836.6467-.1836 1.17 0 .6723.0677 1.1828.206 1.5232.132.3404.5085.7488 1.1232 1.2339 1.7668 1.387 2.8771 2.523 3.3373 3.4123.4602.8892.6887 2.3231.6887 4.3015 0 1.4381-.1287 2.4975-.3829 3.1783-.2543.6808-.7467 1.2551-1.474 1.7147-.7305.4595-1.5769.6935-2.5457.6935-1.0619 0-1.9695-.2681-2.7193-.7999-.7531-.5319-1.2455-1.2084-1.4772-2.0295-.2317-.8254-.3476-1.9912-.3476-3.5059v-1.319h3.6849v2.455c0 .7573.0515 1.2424.1545 1.4594.1062.2127.2896.3233.5535.3233.264 0 .4602-.1361.589-.4127.1287-.2723.1931-.6807.1931-1.2211 0-1.1871-.1223-1.9657-.3669-2.3316-.251-.3659-.8722-.9743-1.8569-1.8295-.9881-.868-1.6414-1.4934-1.9632-1.8849-.3186-.3914-.5857-.9318-.7949-1.621-.2124-.6893-.3154-1.57-.3154-2.6422 0-1.5445.1481-2.6762.4474-3.391.296-.7148.7788-1.2722 1.445-1.6764.6661-.3999 1.4707-.6042 2.4136-.6042 1.0331 0 1.9117.2213 2.6358.6595.7273.4425 1.2069.9956 1.445 1.6679.2349.668.3508 1.804.3508 3.408v.7956z" style="fill-rule:nonzero;fill:#da251d" class="fil4"/>
  <polygon style="fill-rule:nonzero;fill:#da251d" points="199.608 61.2402 202.086 61.2402 202.086 65.0823 199.608 65.0823 199.608 69.52 202.52 69.52 202.52 73.5577 195.636 73.5577 195.636 53.3775 202.256 53.3775 202.256 57.4152 199.608 57.4152" class="fil4"/>
  <polygon style="fill-rule:nonzero;fill:#da251d" points="203.659 73.5577 203.659 53.3775 207.631 53.3775 207.631 69.52 210.044 69.52 210.044 73.5577" class="fil4"/>
  <path d="m218.338 53.3775 2.2721 20.1802h-4.0646l-.1963-3.6293h-1.4257l-.2349 3.6293h-4.1097l2.0178-20.1802h5.7413zm-2.1015 12.9769c-.2027-2.2848-.4022-5.1099-.605-8.4669-.4023 3.8591-.6533 6.6799-.7531 8.4669h1.3581z" style="fill-rule:nonzero;fill:#da251d" class="fil4"/>
  <polygon style="fill-rule:nonzero;fill:#da251d" points="221.894 73.5577 221.894 57.4152 219.545 57.4152 219.545 53.3775 228.218 53.3775 228.218 57.4152 225.862 57.4152 225.862 73.5577" class="fil4"/>
  <path d="m235.208 53.3775 2.2721 20.1802h-4.0646l-.1963-3.6293h-1.4257l-.2349 3.6293h-4.1097l2.0178-20.1802h5.7413zm-2.1015 12.9769c-.2027-2.2848-.4022-5.1099-.605-8.4669-.4023 3.8591-.6533 6.6799-.7531 8.4669h1.3581z" style="fill-rule:nonzero;fill:#da251d" class="fil4"/>
  <polygon style="fill-rule:nonzero;fill:#da251d" points="243.704 62.4656 243.704 53.3775 247.022 53.3775 247.022 73.5577 243.543 73.5577 241.477 64.3845 241.477 73.5577 238.159 73.5577 238.159 53.3775 241.477 53.3775" class="fil4"/>
  <rect style="stroke:#1f1a17;stroke-width:.0762;fill:#6c3c23" class="fil5 str2" height="20.64" width="66.6475" y="166.926" x="116.078"/>
  <line style="stroke:#ffffff;stroke-width:0.7056;fill:none" y2="166.926" x2="121.742" y1="187.566" x1="121.742" class="fil2 str3"/>
  <path style="stroke:#ffffff;stroke-width:0.7056;fill:#1f1a17" class="fil6 str3" d="m126.323 179.431h7.3936v-6.8003c-.9562-2.2628-6.0373-2.4407-7.4415 0 .016 2.2668.032 4.5335.0479 6.8003z"/>
  <line style="stroke:#ffffff;stroke-width:1.4111;fill:none" y2="166.926" x2="116.078" y1="187.566" x1="116.078" class="fil2 str4"/>
  <line style="stroke:#ffffff;stroke-width:0.7056;fill:none" y2="166.926" x2="141.806" y1="187.566" x1="141.806" class="fil2 str3"/>
  <line style="stroke:#ffffff;stroke-width:0.7056;fill:none" y2="180.75" x2="116.078" y1="180.75" x1="141.806" class="fil2 str3"/>
  <line style="stroke:#ffffff;stroke-width:0.7056;fill:none" y2="187.566" x2="138.83" y1="180.75" x1="138.83" class="fil2 str3"/>
  <rect style="stroke:#ffffff;stroke-width:0.5292;fill:#551d35" class="fil7 str5" transform="matrix(.58561 .58561 -.58561 .58561 138.83 183.474)" height="1.824" width="1.824" y="0" x="0"/>
  <line style="stroke:#ffffff;stroke-width:0.7056;fill:none" y2="187.566" x2="134.053" y1="180.75" x1="134.053" class="fil2 str3"/>
  <rect style="stroke:#ffffff;stroke-width:0.5292;fill:#551d35" class="fil7 str5" transform="matrix(.58561 .58561 -.58561 .58561 134.053 183.474)" height="1.824" width="1.824" y="0" x="0"/>
  <line style="stroke:#ffffff;stroke-width:0.7056;fill:none" y2="187.566" x2="129.204" y1="180.75" x1="129.204" class="fil2 str3"/>
  <rect style="stroke:#ffffff;stroke-width:0.5292;fill:#551d35" class="fil7 str5" transform="matrix(.58561 .58561 -.58561 .58561 129.204 183.474)" height="1.824" width="1.824" y="0" x="0"/>
  <line style="stroke:#ffffff;stroke-width:0.7056;fill:none" y2="187.566" x2="124.235" y1="180.75" x1="124.235" class="fil2 str3"/>
  <rect style="stroke:#ffffff;stroke-width:0.5292;fill:#551d35" class="fil7 str5" transform="matrix(.58561 .58561 -.58561 .58561 124.235 183.474)" height="1.824" width="1.824" y="0" x="0"/>
  <line style="stroke:#ffffff;stroke-width:0.7056;fill:none" y2="187.566" x2="119.674" y1="180.75" x1="119.674" class="fil2 str3"/>
  <rect style="stroke:#ffffff;stroke-width:0.5292;fill:#551d35" class="fil7 str5" transform="matrix(.58561 .58561 -.58561 .58561 119.674 183.474)" height="1.824" width="1.824" y="0" x="0"/>
  <line style="stroke:#ffffff;stroke-width:1.4111;fill:none" y2="166.926" x2="182.606" y1="187.566" x1="182.606" class="fil2 str4"/>
  <line style="stroke:#ffffff;stroke-width:0.7056;fill:none" y2="166.926" x2="156.878" y1="187.566" x1="156.878" class="fil2 str3"/>
  <line style="stroke:#ffffff;stroke-width:0.7056;fill:none" y2="180.75" x2="182.606" y1="180.75" x1="156.878" class="fil2 str3"/>
  <line style="stroke:#ffffff;stroke-width:0.7056;fill:none" y2="187.566" x2="159.854" y1="180.75" x1="159.854" class="fil2 str3"/>
  <rect style="stroke:#ffffff;stroke-width:0.5292;fill:#551d35" class="fil7 str5" transform="matrix(-.58561 .58561 .58561 .58561 159.854 183.474)" height="1.824" width="1.824" y="0" x="0"/>
  <line style="stroke:#ffffff;stroke-width:0.7056;fill:none" y2="187.566" x2="164.631" y1="180.75" x1="164.631" class="fil2 str3"/>
  <rect style="stroke:#ffffff;stroke-width:0.5292;fill:#551d35" class="fil7 str5" transform="matrix(-.58561 .58561 .58561 .58561 164.631 183.474)" height="1.824" width="1.824" y="0" x="0"/>
  <line style="stroke:#ffffff;stroke-width:0.7056;fill:none" y2="187.566" x2="169.48" y1="180.75" x1="169.48" class="fil2 str3"/>
  <rect style="stroke:#ffffff;stroke-width:0.5292;fill:#551d35" class="fil7 str5" transform="matrix(-.58561 .58561 .58561 .58561 169.48 183.474)" height="1.824" width="1.824" y="0" x="0"/>
  <line style="stroke:#ffffff;stroke-width:0.7056;fill:none" y2="187.566" x2="174.449" y1="180.75" x1="174.449" class="fil2 str3"/>
  <rect style="stroke:#ffffff;stroke-width:0.5292;fill:#551d35" class="fil7 str5" transform="matrix(-.58561 .58561 .58561 .58561 174.449 183.474)" height="1.824" width="1.824" y="0" x="0"/>
  <line style="stroke:#ffffff;stroke-width:0.7056;fill:none" y2="187.566" x2="179.01" y1="180.75" x1="179.01" class="fil2 str3"/>
  <rect style="stroke:#ffffff;stroke-width:0.5292;fill:#551d35" class="fil7 str5" transform="matrix(-.58561 .58561 .58561 .58561 179.01 183.474)" height="1.824" width="1.824" y="0" x="0"/>
  <line style="stroke:#ffffff;stroke-width:0.7056;fill:none" y2="166.926" x2="176.942" y1="187.566" x1="176.942" class="fil2 str3"/>
  <path style="stroke:#ffffff;stroke-width:0.7055;fill:#1f1a17" class="fil6 str6" d="m165.013 179.431h7.3936v-6.8003c-.9562-2.2628-6.0373-2.4407-7.4415 0 .016 2.2668.032 4.5335.0479 6.8003z"/>
  <path style="stroke:#ffffff;stroke-width:0.3528;fill:#1f1a17" class="fil6 str7" d="m144.819 187.566h9.4675v-14.1404c-.1467-.9978-1.642-2.6483-4.7798-2.6539-2.9422-.005-4.4247 1.6577-4.749 2.6539.0205 4.7135.041 9.4269.0613 14.1404z"/>
  <line style="stroke-linejoin:round;stroke:#ffffff;stroke-width:2.1167;fill:none" y2="187.566" x2="185.102" y1="187.566" x1="113.486" class="fil2 str8"/>
  <g>
   <polygon style="stroke-linejoin:bevel;stroke:#ffffff;stroke-width:0.5292;fill:#551d35" points="187.214 166.926 111.758 166.926 125.774 160.014 173.198 160.014" class="fil7 str9"/>
   <polygon style="stroke-linejoin:bevel;stroke:#ffffff;stroke-width:0.5292;fill:#551d35" points="125.774 160.014 130.382 150.03 168.782 150.03 173.198 160.014" class="fil7 str9"/>
   <path d="m116.865 166.926h2.2325c.0278 3.1664-.8093 3.2059-1.1051 3.2113-.2894.005-1.1163.0771-1.1274-3.2113z" style="stroke-linejoin:bevel;stroke:#ffffff;stroke-width:0.3528;fill:#551d35" class="fil7 str10"/>
   <path d="m119.098 166.926h2.2325c.0278 3.1664-.8093 3.2059-1.1051 3.2113-.2894.005-1.1163.0771-1.1274-3.2113z" style="stroke-linejoin:bevel;stroke:#ffffff;stroke-width:0.3528;fill:#551d35" class="fil7 str10"/>
   <path d="m112.4 166.926h2.2325c.0278 3.1664-.8093 3.2059-1.1051 3.2113-.2894.005-1.1163.0771-1.1274-3.2113z" style="stroke-linejoin:bevel;stroke:#ffffff;stroke-width:0.3528;fill:#551d35" class="fil7 str10"/>
   <path d="m114.633 166.926h2.2325c.0278 3.1664-.8093 3.2059-1.1051 3.2113-.2894.005-1.1163.0771-1.1274-3.2113z" style="stroke-linejoin:bevel;stroke:#ffffff;stroke-width:0.3528;fill:#551d35" class="fil7 str10"/>
   <path d="m125.795 166.926h2.2325c.0278 3.1664-.8093 3.2059-1.1051 3.2113-.2894.005-1.1163.0771-1.1274-3.2113z" style="stroke-linejoin:bevel;stroke:#ffffff;stroke-width:0.3528;fill:#551d35" class="fil7 str10"/>
   <path d="m128.028 166.926h2.2325c.0278 3.1664-.8093 3.2059-1.1051 3.2113-.2894.005-1.1163.0771-1.1274-3.2113z" style="stroke-linejoin:bevel;stroke:#ffffff;stroke-width:0.3528;fill:#551d35" class="fil7 str10"/>
   <path d="m121.33 166.926h2.2325c.0278 3.1664-.8093 3.2059-1.1051 3.2113-.2894.005-1.1163.0771-1.1274-3.2113z" style="stroke-linejoin:bevel;stroke:#ffffff;stroke-width:0.3528;fill:#551d35" class="fil7 str10"/>
   <path d="m123.563 166.926h2.2325c.0278 3.1664-.8093 3.2059-1.1051 3.2113-.2894.005-1.1163.0771-1.1274-3.2113z" style="stroke-linejoin:bevel;stroke:#ffffff;stroke-width:0.3528;fill:#551d35" class="fil7 str10"/>
   <path d="m134.726 167.053h2.2325c.0278 3.1664-.8093 3.2059-1.1051 3.2113-.2894.005-1.1163.0771-1.1274-3.2113z" style="stroke-linejoin:bevel;stroke:#ffffff;stroke-width:0.3528;fill:#551d35" class="fil7 str10"/>
   <path d="m136.958 167.053h2.2325c.0278 3.1664-.8093 3.2059-1.1051 3.2113-.2894.005-1.1163.0771-1.1274-3.2113z" style="stroke-linejoin:bevel;stroke:#ffffff;stroke-width:0.3528;fill:#551d35" class="fil7 str10"/>
   <path d="m130.261 167.053h2.2325c.0278 3.1664-.8093 3.2059-1.1051 3.2113-.2894.005-1.1163.0771-1.1274-3.2113z" style="stroke-linejoin:bevel;stroke:#ffffff;stroke-width:0.3528;fill:#551d35" class="fil7 str10"/>
   <path d="m132.494 167.053h2.2325c.0278 3.1664-.8093 3.2059-1.1051 3.2113-.2894.005-1.1163.0771-1.1274-3.2113z" style="stroke-linejoin:bevel;stroke:#ffffff;stroke-width:0.3528;fill:#551d35" class="fil7 str10"/>
   <path d="m143.656 167.053h2.2325c.0278 3.1664-.8093 3.2059-1.1051 3.2113-.2894.005-1.1163.0771-1.1274-3.2113z" style="stroke-linejoin:bevel;stroke:#ffffff;stroke-width:0.3528;fill:#551d35" class="fil7 str10"/>
   <path d="m145.888 167.053h2.2325c.0278 3.1664-.8093 3.2059-1.1051 3.2113-.2894.005-1.1163.0771-1.1274-3.2113z" style="stroke-linejoin:bevel;stroke:#ffffff;stroke-width:0.3528;fill:#551d35" class="fil7 str10"/>
   <path d="m139.191 167.053h2.2325c.0278 3.1664-.8093 3.2059-1.1051 3.2113-.2894.005-1.1163.0771-1.1274-3.2113z" style="stroke-linejoin:bevel;stroke:#ffffff;stroke-width:0.3528;fill:#551d35" class="fil7 str10"/>
   <path d="m141.423 167.053h2.2325c.0278 3.1664-.8093 3.2059-1.1051 3.2113-.2894.005-1.1163.0771-1.1274-3.2113z" style="stroke-linejoin:bevel;stroke:#ffffff;stroke-width:0.3528;fill:#551d35" class="fil7 str10"/>
   <path d="m152.586 167.053h2.2325c.0278 3.1664-.8093 3.2059-1.1051 3.2113-.2894.005-1.1163.0771-1.1274-3.2113z" style="stroke-linejoin:bevel;stroke:#ffffff;stroke-width:0.3528;fill:#551d35" class="fil7 str10"/>
   <path d="m154.819 167.053h2.2325c.0278 3.1664-.8093 3.2059-1.1051 3.2113-.2894.005-1.1163.0771-1.1274-3.2113z" style="stroke-linejoin:bevel;stroke:#ffffff;stroke-width:0.3528;fill:#551d35" class="fil7 str10"/>
   <path d="m148.121 167.053h2.2325c.0278 3.1664-.8093 3.2059-1.1051 3.2113-.2894.005-1.1163.0771-1.1274-3.2113z" style="stroke-linejoin:bevel;stroke:#ffffff;stroke-width:0.3528;fill:#551d35" class="fil7 str10"/>
   <path d="m150.354 167.053h2.2325c.0278 3.1664-.8093 3.2059-1.1051 3.2113-.2894.005-1.1163.0771-1.1274-3.2113z" style="stroke-linejoin:bevel;stroke:#ffffff;stroke-width:0.3528;fill:#551d35" class="fil7 str10"/>
   <path d="m161.516 167.053h2.2325c.0278 3.1664-.8093 3.2059-1.1051 3.2113-.2894.005-1.1163.0771-1.1274-3.2113z" style="stroke-linejoin:bevel;stroke:#ffffff;stroke-width:0.3528;fill:#551d35" class="fil7 str10"/>
   <path d="m163.749 167.053h2.2325c.0278 3.1664-.8093 3.2059-1.1051 3.2113-.2894.005-1.1163.0771-1.1274-3.2113z" style="stroke-linejoin:bevel;stroke:#ffffff;stroke-width:0.3528;fill:#551d35" class="fil7 str10"/>
   <path d="m157.051 167.053h2.2325c.0278 3.1664-.8093 3.2059-1.1051 3.2113-.2894.005-1.1163.0771-1.1274-3.2113z" style="stroke-linejoin:bevel;stroke:#ffffff;stroke-width:0.3528;fill:#551d35" class="fil7 str10"/>
   <path d="m159.284 167.053h2.2325c.0278 3.1664-.8093 3.2059-1.1051 3.2113-.2894.005-1.1163.0771-1.1274-3.2113z" style="stroke-linejoin:bevel;stroke:#ffffff;stroke-width:0.3528;fill:#551d35" class="fil7 str10"/>
   <path d="m170.447 167.179h2.2325c.0278 3.1664-.8093 3.2059-1.1051 3.2113-.2894.005-1.1163.0771-1.1274-3.2113z" style="stroke-linejoin:bevel;stroke:#ffffff;stroke-width:0.3528;fill:#551d35" class="fil7 str10"/>
   <path d="m172.679 167.179h2.2325c.0278 3.1664-.8093 3.2059-1.1051 3.2113-.2894.005-1.1163.0771-1.1274-3.2113z" style="stroke-linejoin:bevel;stroke:#ffffff;stroke-width:0.3528;fill:#551d35" class="fil7 str10"/>
   <path d="m165.982 167.179h2.2325c.0278 3.1664-.8093 3.2059-1.1051 3.2113-.2894.005-1.1163.0771-1.1274-3.2113z" style="stroke-linejoin:bevel;stroke:#ffffff;stroke-width:0.3528;fill:#551d35" class="fil7 str10"/>
   <path d="m168.214 167.179h2.2325c.0278 3.1664-.8093 3.2059-1.1051 3.2113-.2894.005-1.1163.0771-1.1274-3.2113z" style="stroke-linejoin:bevel;stroke:#ffffff;stroke-width:0.3528;fill:#551d35" class="fil7 str10"/>
   <path d="m179.377 167.179h2.2325c.0278 3.1664-.8093 3.2059-1.1051 3.2113-.2894.005-1.1163.0771-1.1274-3.2113z" style="stroke-linejoin:bevel;stroke:#ffffff;stroke-width:0.3528;fill:#551d35" class="fil7 str10"/>
   <path d="m181.609 167.179h2.2325c.0278 3.1664-.8093 3.2059-1.1051 3.2113-.2894.005-1.1163.0771-1.1274-3.2113z" style="stroke-linejoin:bevel;stroke:#ffffff;stroke-width:0.3528;fill:#551d35" class="fil7 str10"/>
   <path d="m174.912 167.179h2.2325c.0278 3.1664-.8093 3.2059-1.1051 3.2113-.2894.005-1.1163.0771-1.1274-3.2113z" style="stroke-linejoin:bevel;stroke:#ffffff;stroke-width:0.3528;fill:#551d35" class="fil7 str10"/>
   <path d="m177.144 167.179h2.2325c.0278 3.1664-.8093 3.2059-1.1051 3.2113-.2894.005-1.1163.0771-1.1274-3.2113z" style="stroke-linejoin:bevel;stroke:#ffffff;stroke-width:0.3528;fill:#551d35" class="fil7 str10"/>
   <path d="m183.842 167.179h2.2325c.0278 3.1664-.8093 3.2059-1.1051 3.2113-.2894.005-1.1163.0771-1.1274-3.2113z" style="stroke-linejoin:bevel;stroke:#ffffff;stroke-width:0.3528;fill:#551d35" class="fil7 str10"/>
  </g>
  <line style="stroke:#f6bb00;stroke-width:2.1167;fill:none" y2="189.582" x2="197.102" y1="189.582" x1="102.35" class="fil2 str11"/>
  <line style="stroke:#f6bb00;stroke-width:2.1167;fill:none" y2="193.614" x2="197.102" y1="193.614" x1="102.35" class="fil2 str11"/>
  <line style="stroke:#f6bb00;stroke-width:2.1167;fill:none" y2="197.742" x2="197.006" y1="197.742" x1="102.254" class="fil2 str11"/>
  <line style="stroke:#f6bb00;stroke-width:2.1167;fill:none" y2="201.774" x2="197.006" y1="201.774" x1="102.254" class="fil2 str11"/>
  <line style="stroke:#f6bb00;stroke-width:2.1167;fill:none" y2="205.806" x2="197.006" y1="205.806" x1="102.254" class="fil2 str11"/>
  <line style="stroke:#f8c300;stroke-width:2.1167;fill:none" y2="209.838" x2="197.006" y1="209.838" x1="102.254" class="fil2 str12"/>
  <line style="stroke:#f6bb00;stroke-width:2.1167;fill:none" y2="209.838" x2="197.006" y1="209.838" x1="102.254" class="fil2 str11"/>
  <line style="stroke:#f6bb00;stroke-width:2.1167;fill:none" y2="213.87" x2="197.006" y1="213.87" x1="102.254" class="fil2 str11"/>
  <g>
   <path d="m149.338 213.295v-19.632c-5.729.186-21.1669-8.762-31.632-3.888l5.952 17.472-3.168 2.784c9.1241-.5724 18.7001.3806 28.848 3.264z" style="stroke-linejoin:bevel;stroke:#1f1a17;stroke-width:0.7056;fill:#ffffff" class="fil3 str13"/>
   <path d="m123.658 207.247c8.3039-.6746 15.4794-.0864 25.68 3.6" style="stroke:#1f1a17;stroke-width:0.7056;fill:none" class="fil2 str14"/>
   <path d="m120.49 210.031l3.168-2.784-5.952-17.472-2.544 3.456 5.328 16.8z" style="stroke-linejoin:bevel;stroke:#1f1a17;stroke-width:0.7056;fill:#ffffff" class="fil3 str13"/>
   <path d="m141.658 193.567c-6.0918-2.2927-13.0024-4.2558-21.984-2.496" style="stroke:#1f1a17;stroke-width:0.7056;fill:none" class="fil2 str14"/>
   <path d="m142.138 195.967c-5.534-2.1484-10.2605-3.7665-21.504-2.112" style="stroke:#1f1a17;stroke-width:0.7056;fill:none" class="fil2 str14"/>
   <path d="m142.593 198.652c-5.534-2.1484-11.678-3.6044-21.2895-2.2379" style="stroke:#1f1a17;stroke-width:0.7056;fill:none" class="fil2 str14"/>
   <path d="m142.851 201.445c-4.91-2.2924-11.102-3.8444-20.7135-2.4779" style="stroke:#1f1a17;stroke-width:0.7056;fill:none" class="fil2 str14"/>
   <path d="m143.195 204.172c-4.91-2.2924-10.19-3.7484-19.8015-2.3819" style="stroke:#1f1a17;stroke-width:0.7056;fill:none" class="fil2 str14"/>
   <path d="m143.285 207.095c-4.094-1.9084-9.998-3.6524-19.0815-2.2859" style="stroke:#1f1a17;stroke-width:0.7056;fill:none" class="fil2 str14"/>
   <path d="m149.338 213.295v-19.632c5.729.186 21.1669-8.762 31.632-3.888l-5.952 17.472 3.168 2.784c-9.1241-.5724-18.7001.3806-28.848 3.264z" style="stroke-linejoin:bevel;stroke:#1f1a17;stroke-width:0.7056;fill:#ffffff" class="fil3 str13"/>
   <path d="m175.018 207.247c-8.3039-.6746-15.4794-.0864-25.68 3.6" style="stroke:#1f1a17;stroke-width:0.7056;fill:none" class="fil2 str14"/>
   <path d="m178.186 210.031l-3.168-2.784 5.952-17.472 2.544 3.456-5.328 16.8z" style="stroke-linejoin:bevel;stroke:#1f1a17;stroke-width:0.7056;fill:#ffffff" class="fil3 str13"/>
   <path d="m157.018 193.567c6.0918-2.2927 13.0024-4.2558 21.984-2.496" style="stroke:#1f1a17;stroke-width:0.7056;fill:none" class="fil2 str14"/>
   <path d="m156.538 195.967c5.534-2.1484 10.2605-3.7665 21.504-2.112" style="stroke:#1f1a17;stroke-width:0.7056;fill:none" class="fil2 str14"/>
   <path d="m156.083 198.652c5.534-2.1484 11.678-3.6044 21.2895-2.2379" style="stroke:#1f1a17;stroke-width:0.7056;fill:none" class="fil2 str14"/>
   <path d="m155.826 201.445c4.91-2.2924 11.102-3.8444 20.7135-2.4779" style="stroke:#1f1a17;stroke-width:0.7056;fill:none" class="fil2 str14"/>
   <path d="m155.482 204.172c4.91-2.2924 10.19-3.7484 19.8015-2.3819" style="stroke:#1f1a17;stroke-width:0.7056;fill:none" class="fil2 str14"/>
   <path d="m155.392 207.095c4.094-1.9084 9.998-3.6524 19.0815-2.2859" style="stroke:#1f1a17;stroke-width:0.7056;fill:none" class="fil2 str14"/>
   <g>
    <path d="m149.438 213.294c.096-1.104.024-2.5689.12-3.6729-.112-2.08-.0559-4.5416-.1679-6.6216-.112 2.08-.0561 4.5416-.1681 6.6216.096 1.104.024 2.5689.12 3.6729-.7646-2.9336-1.5979-5.8085-4.56-6.864.7428-.6663 1.0177-1.5884 1.056-2.6401v-3.8879h.72-2.352l.672-1.008-.528-6.288h5.04 5.04l-.528 6.288.672 1.008h-2.352.72v3.8879c.0383 1.0517.3132 1.9738 1.056 2.6401-2.9621 1.0555-3.7954 3.9304-4.56 6.864z" style="stroke-linejoin:bevel;stroke:#1f1a17;stroke-width:0.7056;fill:#ffffff" class="fil3 str13"/>
    <ellipse style="fill:#1f1a17" rx="1.0309" ry="0.74255" class="fil6" cy="203" cx="149.39"/>
   </g>
  </g>
  <path style="stroke:#0a0b0c;stroke-width:2.8222;fill:#ffffff" class="fil3 str15" d="m25.4295 273.173c-11.7823-14.1045-18.7303-32.7565-20.3943-50.8045 5.1871 5.697 10.9411 10.1111 17.28 12.864 2.214-8.4542 5.6579-14.2021 9.792-18.432 1.9857 13.4891 5.4916 24.9776 12.3428 32.065-6.6103 8.4477-12.4103 15.8599-19.0205 24.3075z"/>
  <polygon style="stroke-linejoin:bevel;stroke:#0a0b0c;stroke-width:2.8222;fill:#ffffff" points="26.916 274.734 50.9161 244.063 25.38 261.102" class="fil3 str16"/>
  <path style="stroke:#0a0b0c;stroke-width:2.8222;fill:#ffffff" class="fil3 str15" d="m271.748 275.043c11.7823-14.1045 18.7303-32.7565 20.3943-50.8045-5.1871 5.697-10.9411 10.1111-17.28 12.864-2.214-8.4542-5.6579-14.2021-9.792-18.432-1.9857 13.4891-5.4916 24.9776-12.3428 32.065 6.6103 8.4477 12.4103 15.8599 19.0205 24.3075z"/>
  <polygon style="stroke-linejoin:bevel;stroke:#0a0b0c;stroke-width:2.8222;fill:#ffffff" points="272.462 274.542 248.462 243.871 273.998 260.91" class="fil3 str16"/>
  <path style="stroke:#0a0b0c;stroke-width:2.8222;fill:#ffffff" class="fil3 str15" d="m26.03 261.198c8.512-5.6797 17.024-11.3595 25.5361-17.0393 33.3849 63.964 155.948 69.8222 195.226.3917 8.6525 5.5492 17.3051 11.0984 25.9577 16.6476-46.4401 83.4959-197.592 85.9761-246.72 0z"/>
  <path style="fill-rule:nonzero;fill:#da251d" class="fil4" d="m41.774 269.911m9.2032 3.4297 1.2843 2.9131c-.792.4182-1.5524.653-2.2827.7058-.7305.0529-1.4222-.0699-2.0735-.3665-.6533-.2947-1.3081-.8238-1.9668-1.5816-.8012-.9216-1.3193-1.7948-1.5527-2.6139-.2331-.8229-.1897-1.7476.1321-2.7722.3234-1.0226 1.0206-2.0028 2.0969-2.9384 1.4357-1.248 2.8644-1.8352 4.2822-1.758 1.4199.0754 2.7233.7959 3.9087 2.1596.928 1.0675 1.4371 2.0976 1.5266 3.0938.0896.9962-.1944 2.0399-.8517 3.131l-2.5377-1.8546c.1942-.3109.3143-.5643.3603-.7602.077-.3233.0785-.6398.0059-.9475-.0742-.3097-.2255-.5939-.4536-.8564-.5147-.592-1.1553-.8354-1.9184-.7264-.5711.0771-1.2452.4517-2.0226 1.1275-.9632.8373-1.4962 1.5537-1.6067 2.1485-.1086.5968.062 1.1519.5097 1.667.4357.5012.9085.7555 1.4203.7611.5097.007 1.0889-.1706 1.7394-.5317zm-1.079 5.7207m8.4015-7.9231 7.0176 6.1003-1.6096 1.8517-4.3929-3.8187-1.1989 1.3791 4.0751 3.5425-1.5376 1.7689-4.0752-3.5425-1.485 1.7083 4.5212 3.9302-1.7079 1.9647-7.1459-6.2117 7.5391-8.6728zm.1046 15.3076m.9907.6682 6.426-9.5269 4.795 3.2344c.8889.5995 1.5172 1.1363 1.8793 1.6096.3657.4726.5505 1.0168.553 1.635.0042.6159-.1999 1.227-.6084 1.8326-.3575.5301-.7748.9102-1.2526 1.1463-.48.2346-.9929.3404-1.5382.3211-.3489-.0159-.7701-.1161-1.2631-.3065.2633.3487.4333.6343.5122.8587.0517.1477.0934.4179.123.809.028.3932.0308.6791.0037.8641l-.471 3.7004-3.2517-2.1933.4275-3.9491c.0578-.5065.0504-.8697-.0273-1.0866-.1071-.2853-.294-.5179-.5562-.6948l-.2538-.1711-2.6078 3.8662-2.8896-1.9491zm6.7122-3.7182 1.214.8188c.1301.0878.4122.2167.8478.3846.2177.0887.441.0942.6702.0164.2269-.0794.4118-.2224.5525-.4309.2079-.3083.2711-.6078.191-.9006-.0785-.2951-.3807-.6184-.9054-.9723l-1.2639-.8525-1.3062 1.9365zm2.461 9.9529m6.7806-9.3545 4.4656 2.5783c.8786.5072 1.5188 1.0406 1.9219 1.5976.3993.5582.6457 1.1669.7354 1.8273.0885.6628.0379 1.3411-.1518 2.041-.1919.6987-.4832 1.3862-.8752 2.0652-.6141 1.0634-1.208 1.8204-1.7843 2.2693-.574.4503-1.186.7519-1.8345.9026-.6478.1544-1.2508.1584-1.8095.012-.7633-.1997-1.4134-.4546-1.9477-.7631l-4.4656-2.5782 5.7457-9.952zm1.7034 3.9895-3.1384 5.436.7359.4249c.6294.3634 1.1158.5515 1.4637.5608.3465.0116.6994-.1184 1.0558-.3853.3541-.2682.762-.802 1.2221-1.5991.6087-1.0543.8572-1.8716.7467-2.4544-.1125-.5841-.5572-1.1004-1.3362-1.5501l-.7496-.4328zm1.4759 10.9837m8.1337 1.5448-3.6118-1.608-1.2684 1.5118-3.2391-1.4422 8.5294-8.7815 3.4565 1.539-.8161 12.2156-3.318-1.4772.2675-1.9575zm.347-2.5663.5456-4.279-2.8078 3.2718 2.2622 1.0072zm2.6245 6.1585m1.6921-3.4479 3.2063.8196c-.1024.5435-.0921.9856.0275 1.3284.1943.5527.6106.9299 1.2423 1.1351.4701.1527.8695.1587 1.1992.0154.3272-.144.5393-.3649.636-.6626.0918-.2824.0551-.5757-.1159-.8788-.171-.3032-.6643-.697-1.4852-1.183-1.339-.8036-2.228-1.5792-2.6654-2.3318-.4423-.7542-.5249-1.5575-.2471-2.4124.1827-.5624.5146-1.0425.9951-1.4378.4803-.3953 1.0852-.6321 1.8177-.712.7317-.0773 1.6534.0646 2.765.4258 1.3652.4436 2.3229 1.0417 2.8704 1.7935.5476.7518.7041 1.717.473 2.8938l-3.1713-.8251c.0775-.5178.0199-.9331-.1734-1.2435-.1917-.307-.5208-.5378-.9858-.6889-.3856-.1253-.7006-.1375-.9491-.0326-.2477.1024-.4108.2744-.4884.5136-.0563.173-.0271.3541.0864.5458.1097.1959.4347.4478.9786.7624 1.339.7868 2.2661 1.4453 2.7844 1.9737.5184.5286.8428 1.0785.9693 1.6541.1272.5731.0961 1.1594-.0982 1.7574-.2273.6997-.6288 1.2838-1.1986 1.7514-.5707.47-1.2458.7458-2.0265.8297-.7781.0848-1.6856-.0413-2.7202-.3775-1.8153-.5898-2.9579-1.3549-3.4237-2.2996-.4689-.9429-.5692-1.9798-.3024-3.1141zm14.0858 8.7455m3.4763-11.0093 4.4657.9492.2703 7.2048 3.1697-6.4736 4.4505.946-2.3893 11.2403-2.7725-.5893 1.8218-8.5709-3.9728 8.1137-2.5092-.5333-.3215-9.0265-1.8218 8.5709-2.7801-.5909 2.3892-11.2404zm11.0176 14.22m1.4053-5.6096c.2286-1.8616.9155-3.2491 2.0547-4.1605 1.1424-.9138 2.6178-1.2582 4.4267-1.0361 1.8556.2278 3.2232.9133 4.1022 2.0564.8771 1.14 1.2051 2.6306.9797 4.4656-.1636 1.3331-.5186 2.4002-1.0619 3.1988-.5432.7986-1.258 1.3847-2.1444 1.7584-.8887.3734-1.9481.4832-3.1862.3312-1.256-.1542-2.2716-.4865-3.0468-.9967-.7722-.5127-1.3595-1.2426-1.7646-2.1926-.4024-.9497-.5231-2.0914-.3594-3.4245zm3.4447.4391c-.1415 1.1526-.0353 2.004.3207 2.5598.3562.5532.8962.8756 1.6151.9639.7396.0908 1.3435-.0857 1.8088-.5273.4655-.4443.7791-1.3034.9356-2.5781.1321-1.0755.0155-1.8851-.3466-2.4336-.3625-.5458-.9057-.8633-1.6324-.9525-.6929-.0851-1.2816.096-1.764.549-.4821.4503-.7947 1.2583-.9372 2.4188zm8.0621 6.7758m2.192-11.3436 5.1368.4494c1.0106.0884 1.8162.3012 2.417.6358.5978.337 1.0783.7846 1.4388 1.3452.3602.5633.6011 1.1994.725 1.914.1212.7142.1478 1.4605.0795 2.2415-.107 1.2233-.3256 2.1604-.6581 2.8108-.3299.6507-.7571 1.1827-1.2811 1.5934-.5219.4136-1.0667.6721-1.6349.7755-.7762.1416-1.473.1853-2.0877.1316l-5.1369-.4495 1.0016-11.4477zm3.2298 2.8958-.5471 6.253.8465.0741c.7242.0633 1.2443.0282 1.5636-.1104.319-.1359.5839-.4028.794-.7953.2077-.3928.3517-1.0489.4319-1.9658.1061-1.2128-.0141-2.0585-.3605-2.54-.3489-.4818-.9701-.7618-1.8662-.8402l-.8622-.0754zm6.7816 9.411m1.1427-11.4915h9.2983v2.4535h-5.8206v1.8274h5.3996v2.3438h-5.3996v2.2635h5.9906v2.6033h-9.4683v-11.4915zm10.1874 11.331m1.1943-.0417-.4011-11.4845 5.7804-.2019c1.0715-.0374 1.8953.0276 2.4665.1977.5736.1674 1.0431.499 1.4084.9976.3653.4959.5595 1.1102.585 1.8402.0223.6391-.0919 1.1919-.3396 1.6637-.2504.4719-.6032.859-1.0557 1.164-.2915.1922-.6913.3587-1.202.4944.4179.1273.7233.2585.9191.3936.1287.0891.3211.2832.575.5823.2538.3016.4241.5313.5109.6969l1.794 3.2704-3.9199.1369-1.9754-3.4461c-.251-.4437-.4704-.7333-.6607-.8631-.2544-.1678-.5423-.2461-.8584-.2351l-.3059.0107.1628 4.6607-3.4834.1216zm3.2448-6.9535 1.4634-.0511c.1569-.005.4608-.067.9119-.1871.2283-.0562.4122-.1831.5518-.3807.137-.1976.2024-.422.1937-.6734-.013-.3717-.1379-.6511-.3748-.8409-.2369-.1926-.6716-.2764-1.304-.2544l-1.5235.0532.0815 2.3344zm7.7643 6.1925m-.2378-11.5486 3.2183-.3952 4.9714 5.7945-.7748-6.3097 3.2468-.3987 1.4004 11.4059-3.2467.3986-4.9447-5.7491.7688 6.2618-3.239.3977-1.4005-11.4058zm18.2252 8.659m1.1644-.2688-2.5851-11.197 5.6357-1.3011c1.0447-.2412 1.8657-.3346 2.4588-.2766.5951.0549 1.1191.2908 1.5729.7106.4533.417.7611.983.9254 1.6948.1439.623.1372 1.1874-.0159 1.6979-.1558.511-.4283.9583-.8142 1.344-.2495.2443-.6101.484-1.0856.7147.4346.0452.7594.1157.9773.2109.1434.063.3693.2168.6756.4619.3067.2477.5177.4407.6345.5866l2.385 2.8681-3.8217.8823-2.5967-3.0059c-.331-.3877-.6016-.63-.8132-.7211-.2816-.1163-.5793-.1382-.8876-.067l-.2981.0688 1.0491 4.544-3.3962.7841zm1.8584-7.4449 1.4268-.3294c.1529-.0353.4395-.1537.8594-.3577.2134-.0987.3696-.2583.469-.479.0968-.2201.1183-.4529.0617-.6979-.0837-.3624-.2597-.6128-.5283-.754-.2695-.1438-.712-.1432-1.3286-.0009l-1.4855.343.5255 2.2759zm8.8669 4.6636m-2.6608-11.2374 8.7917-3.0273.7988 2.3198-5.5035 1.895.595 1.7279 5.1054-1.758.763 2.2162-5.1053 1.7579.7368 2.1402 5.6642-1.9504.8476 2.4615-8.9525 3.0826-3.7412-10.8654zm13.2064 7.3846m-3.2404-11.0848 3.2196-1.3008 3.2444 8.0302 5.021-2.0286 1.0604 2.6245-8.2406 3.3295-4.3048-10.6548zm12.9205 7.0715m-3.8812-10.8925 3.1258-1.5245 5.0375 10.3285-3.1257 1.5245-5.0376-10.3285zm9.5162 8.324m3.4322-7.1929-1.3013-2.0038 4.4955-2.9194 2.6681 4.1086c-.4705 1.1574-.9648 2.0621-1.4871 2.7077-.5209.6477-1.2361 1.2652-2.144 1.8549-1.1185.7262-2.1553 1.122-3.1129 1.1888-.9582.0703-1.8816-.1562-2.7689-.6775-.8894-.5198-1.6587-1.2772-2.3072-2.2757-.6834-1.0524-1.0652-2.1061-1.1476-3.1596-.0788-1.0526.1586-2.0458.7143-2.9809.4356-.7263 1.1946-1.4394 2.2736-2.1401 1.0394-.675 1.8806-1.0842 2.5235-1.2273.6407-.1417 1.2621-.1209 1.868.0631.6022.1832 1.1925.5304 1.7686 1.0431l-2.4748 2.3345c-.3522-.288-.7303-.4381-1.1319-.4516-.3994-.015-.8153.1178-1.2428.3955-.6382.4144-.9997.9715-1.0849 1.6711-.0835.7019.1906 1.5416.8289 2.5244.6776 1.0434 1.3543 1.6631 2.028 1.8604.6716.1987 1.3524.0757 2.0389-.3701.3244-.2108.6038-.4624.8351-.7497.2333-.2888.4668-.6733.6962-1.1508l-.5902-.9088-1.9451 1.2632zm7.4403.1294m-5.7137-10.053 2.8135-2.0442 6.7546 9.2968-2.8136 2.0442-6.7545-9.2968zm10.721 6.3607m-.9087-14.2386 2.6541-2.2271 4.4045 5.2491c.4368.5206.7677 1.0776.9981 1.6736.2288.5939.321 1.2082.273 1.8386-.0478.6304-.1995 1.1698-.4534 1.6238-.3533.6284-.8898 1.2461-1.6149 1.8545-.4186.3513-.8994.7059-1.4457 1.0595-.5447.3558-1.0571.5831-1.5392.6839-.4821.1006-.9999.1019-1.5514.006-.5516-.0959-1.0237-.2761-1.4182-.5389-.6338-.4217-1.1321-.8488-1.495-1.2812l-4.4044-5.249 2.654-2.227 4.5094 5.374c.4041.4817.8491.7475 1.3328.7991.4875.0521.9615-.1152 1.4241-.5034.4568-.3833.7055-.8191.7424-1.304.0365-.4811-.1515-.9696-.5608-1.4574l-4.5094-5.374zm10.8399 5.8909m-2.4616-2.9482 2.0529-2.5956c.4548.3145.8629.4849 1.2247.515.5839.0473 1.0978-.1796 1.5422-.6731.3307-.3673.4986-.7298.502-1.0893.001-.3575-.1141-.6411-.3467-.8505-.2208-.1987-.5036-.2845-.85-.2516-.3465.0329-.9069.3234-1.6848.8756-1.2788.8964-2.349 1.3931-3.2143 1.4865-.8689.0973-1.6364-.1539-2.3045-.7554-.4394-.3957-.7429-.8942-.9087-1.4938-.1657-.5997-.136-1.2485.089-1.9502.2269-.6999.7315-1.4842 1.5136-2.3528.9605-1.0668 1.8965-1.6984 2.806-1.8928.9094-.1944 1.8549.0552 2.8359.7449l-2.0436 2.5616c-.4416-.2814-.8443-.3977-1.2066-.3474-.3584.0503-.7031.2571-1.0303.6205-.2713.3012-.4105.5839-.4158.8536-.007.268.0836.487.2706.6552.1351.1218.3124.1688.5338.143.2235-.0205.5858-.2149 1.0945-.5839 1.2633-.9032 2.242-1.4823 2.9355-1.7409.6938-.2586 1.3282-.3312 1.9054-.2126.5753.1168 1.0982.3836 1.5655.8044.5467.4923.917 1.0966 1.1125 1.8074.1973.7125.1746 1.4414-.0663 2.1887-.239.7454-.7234 1.5231-1.4513 2.3315-1.2772 1.4185-2.4409 2.1511-3.4933 2.1924-1.0521.0449-2.0402-.2853-2.9679-.9904z"/>
  <polygon style="fill:#c0a062" points="133.772 99.1893 145.741 99.2123 149.417 87.822 153.094 99.2123 165.063 99.1893 155.366 106.206 159.087 117.582 149.417 110.528 139.748 117.582 143.468 106.206" class="fil8"/>
  <path style="fill:#007d3c" class="fil9" d="m105.518 280.11c-1.024-.832-1.472-1.088-2.496-1.92 14.4174-14.857 73.2072-8.2618 91.2-27.168l1.344.96c-16.2452 18.9854-70.4773 12.221-90.048 28.128z"/>
  <path style="fill:#ffffff" class="fil3" d="m179.359 115.561c-3.6866 1.4887-6.665-4.1229-3.6404-5.6338-3.8085-3.0188.6434-10.0126 4.8853-8.1877 1.2388-4.1039 6.8859-1.6727 6.6261 1.1778-2.6237 4.2146-5.2474 8.4292-7.871 12.6437z"/>
  <path style="fill:#007d3c" class="fil9" d="m179.339 117.607c.6392-3.9604 8.1247 1.3012 11.1997-2.9855.1583-.4046.7023-.8285.8605-1.2331 2.1064-2.7248-5.2937-10.1187-2.2129-10.7699-2.0818-1.0758-4.1021.4112-4.3119 2.2612-3.8794 1.3446-5.355 3.9572-4.4268 7.8376-1.634.7871-1.8547 2.5162-1.1086 4.8897z"/>
  <path style="fill:#ffffff" class="fil3" d="m194.335 122.953c-3.6866 1.4887-6.665-4.1229-3.6404-5.6338-3.8085-3.0188.6434-10.0126 4.8853-8.1877 1.2388-4.1039 6.8859-1.6727 6.6261 1.1778-2.6237 4.2146-5.2474 8.4292-7.871 12.6437z"/>
  <path style="fill:#007d3c" class="fil9" d="m194.315 124.999c.6392-3.9604 8.1247 1.3012 11.1997-2.9855.1583-.4046.7023-.8285.8605-1.2331 2.1064-2.7248-5.2937-10.1187-2.2129-10.7699-2.0818-1.0758-4.1021.4112-4.3119 2.2612-3.8794 1.3446-5.355 3.9572-4.4268 7.8376-1.634.7871-1.8547 2.5162-1.1086 4.8897z"/>
  <path style="fill:#ffffff" class="fil3" d="m204.965 131.015c-3.9524.4307-5.2934-5.7792-1.972-6.4111-2.8445-3.9404 3.3407-9.4607 6.9268-6.5516 2.3077-3.6126 7.0813.2619 6.0565 2.9345-3.6705 3.3428-7.3409 6.6856-11.0113 10.0282z"/>
  <path style="fill:#007d3c" class="fil9" d="m204.389 132.979c1.6916-3.6376 7.4651 3.4606 11.5896.171.2623-.3463.901-.6064 1.1632-.9527 2.7677-2.0497-2.344-11.1766.7978-10.966-1.711-1.6011-4.0595-.7192-4.7642 1.0041-4.0988.2396-6.2289 2.3527-6.3904 6.3393-1.7865.3134-2.4689 1.9173-2.396 4.4043z"/>
  <path style="fill:#ffffff" class="fil3" d="m213.805 142.194c-3.9466-.4811-3.8376-6.8331-.4596-6.6917-1.872-4.4849 5.4081-8.451 8.2373-4.8014 3.0699-2.9919 6.8354 1.8683 5.2287 4.2372-4.3355 2.4186-8.671 4.8373-13.0064 7.2559z"/>
  <path style="fill:#007d3c" class="fil9" d="m212.797 143.975c2.4758-3.1565 6.4805 5.0702 11.2459 2.8068.3343-.2775 1.0155-.3852 1.3497-.6627 3.1619-1.3652.2638-11.4167 3.275-10.4958-1.3012-1.9488-3.7889-1.6252-4.8677-.1077-4.0456-.7005-6.6011.8717-7.6665 4.7167-1.8109-.1018-2.8408 1.3045-3.3364 3.7427z"/>
  <path style="fill:#ffffff" class="fil3" d="m220.523 154.856c-3.7468-1.3299-2.2556-7.5055 1.0104-6.631-.8493-4.7851 7.1204-7.0686 9.0858-2.8899 3.6484-2.2507 6.2637 3.3135 4.1792 5.2751-4.7586 1.4153-9.517 2.8306-14.2754 4.2458z"/>
  <path style="fill:#007d3c" class="fil9" d="m219.151 156.375c3.1044-2.5408 5.2191 6.3611 10.3634 5.1911.3867-.1979 1.075-.1546 1.4617-.3525 3.3834-.643 2.7465-11.0846 5.4845-9.5294-.8451-2.1856-3.3434-2.412-4.7271-1.1663-3.7955-1.5656-6.6324-.5884-8.5104 2.9318-1.7452-.4942-3.0569.6538-4.0721 2.9253z"/>
  <path style="fill:#ffffff" class="fil3" d="m224.862 170.924c-4.0106-1.7417-1.9089-8.4048 1.6085-7.1991-.571-5.3141 8.3452-7.2186 10.1865-2.4858 4.1726-2.1942 6.6225 4.1078 4.1875 6.1029-5.3276 1.194-10.6551 2.388-15.9825 3.582z"/>
  <path style="fill:#007d3c" class="fil9" d="m223.243 172.487c3.5977-2.5536 5.2467 7.3727 10.979 6.4769.4392-.188 1.1911-.0886 1.6303-.2766 3.7607-.4504 3.8491-11.9545 6.7359-10.0417-.7624-2.4617-3.4864-2.8985-5.0985-1.6361-4.0463-2.0039-7.2324-1.1456-9.5584 2.5751-1.8774-.6738-3.4031.4868-4.6883 2.9024z"/>
  <path style="fill:#ffffff" class="fil3" d="m225.511 185.17c-3.3911-3.0071.8247-8.896 3.9024-6.5757 1.148-5.42 10.5466-4.4263 10.8373.8298 4.8178-.8188 5.2031 6.1794 2.1616 7.3613-5.6338-.5385-11.2676-1.0769-16.9013-1.6154z"/>
  <path style="fill:#007d3c" class="fil9" d="m223.412 186.187c4.3669-1.3581 2.7964 8.9535 8.733 9.9161.4933-.0439 1.2022.2962 1.6955.2523 3.8505.7668 7.6408-10.5402 9.8696-7.7261.0412-2.6711-2.5023-3.9784-4.4971-3.2533-3.3418-3.2771-6.7576-3.457-10.2471-.5397-1.633-1.2683-3.51-.6158-5.5539 1.3507z"/>
  <path style="fill:#ffffff" class="fil3" d="m223.135 199.105c-2.5291-3.7611 3.0281-8.4053 5.426-5.3877 2.4698-4.9592 11.3193-1.6416 10.2834 3.5197 4.8692.4148 3.4882 7.2862.2475 7.6681-5.319-1.9334-10.638-3.8667-15.9569-5.8001z"/>
  <path style="fill:#007d3c" class="fil9" d="m220.848 199.565c4.5679-.2202.463 9.3686 5.9689 11.7884.4885.0812 1.0895.5881 1.578.6692 3.5354 1.7074 10.0388-8.2886 11.4911-5.0057.7094-2.5755-1.4252-4.4786-3.5381-4.2766-2.4138-4.0102-5.6754-5.0404-9.7848-3.0909-1.263-1.6371-3.2435-1.4759-5.7151-.0844z"/>
  <path style="fill:#ffffff" class="fil3" d="m218.346 212.598c-1.9179-4.1065 4.2898-7.8369 6.1929-4.4852 3.206-4.5183 11.4371.1261 9.6166 5.0655 4.7467 1.1618 2.3211 7.7375-.9397 7.6144-4.9566-2.7316-9.9133-5.4632-14.8698-8.1947z"/>
  <path style="fill:#007d3c" class="fil9" d="m216.016 212.698c4.5471.4878-.9893 9.3277 4.0768 12.5688.4702.1556.9857.7492 1.4558.9048 3.2293 2.2329 11.1984-6.6389 12.1263-3.1712 1.0986-2.435-.7166-4.6449-2.8353-4.7716-1.7656-4.3348-4.8289-5.8564-9.1901-4.5648-.995-1.8125-2.9767-1.9591-5.6335-.966z"/>
  <path style="fill:#ffffff" class="fil3" d="m208.321 227.247c-1.9179-4.1065 4.2898-7.8369 6.1929-4.4852 3.206-4.5183 11.4371.1261 9.6166 5.0655 4.7467 1.1618 2.3211 7.7375-.9397 7.6144-4.9566-2.7316-9.9133-5.4632-14.8698-8.1947z"/>
  <path style="fill:#007d3c" class="fil9" d="m205.99 227.347c4.5471.4878-.9893 9.3277 4.0768 12.5688.4702.1556.9857.7492 1.4558.9048 3.2293 2.2329 11.1984-6.6389 12.1263-3.1712 1.0986-2.435-.7166-4.6449-2.8353-4.7716-1.7656-4.3348-4.8289-5.8564-9.1901-4.5648-.995-1.8125-2.9767-1.9591-5.6335-.966z"/>
  <path style="fill:#ffffff" class="fil3" d="m196.538 236.994c-.6849-4.9918 7.1346-6.9096 8.0522-2.7242 4.8915-3.7425 12.1029 3.8984 8.544 8.544 4.6579 2.796-.0821 8.98-3.504 7.776-4.3641-4.532-8.7282-9.0639-13.0922-13.5958z"/>
  <path style="fill:#007d3c" class="fil9" d="m194.03 236.334c4.6678 2.0147-4.1207 9.579.192 14.688.448.32.8 1.12 1.248 1.44 2.6941 3.4339 14.0761-3.3636 13.92.624 1.968-2.224.768-5.168-1.44-6-.448-5.184-3.2-7.808-8.256-7.872-.46-2.2521-2.516-3.06-5.664-2.88z"/>
  <g>
   <path d="m193.07 280.11c1.024-.832 1.472-1.088 2.496-1.92-14.4174-14.857-73.2072-8.2618-91.2-27.168l-1.344.96c16.2452 18.9854 70.4773 12.221 90.048 28.128z" style="fill:#f6bb00" class="fil10"/>
   <path d="m91.886 246.27c-.2135-1.3071-.0755-2.9811.672-4.224-7.953-8.2239.4313-16.1918-1.344-21.696 7.004 6.7079 7.556 17.7081 2.208 22.08-.6363 1.1558-.8045 2.4598-.48 3.936l-1.056-.096z" style="fill:#f6bb00" class="fil10"/>
   <path d="m103.309 252.134c-.0981-1.2906-.1883-2.977-.2864-4.2676-9.586-6.2443-3.1887-15.8805-6.1462-20.8506 8.323 4.978 11.313 15.5784 7.074 21.0324.1365 1.3147.273 2.6293.4094 3.944-.3502.0472-.7005.0945-1.0508.1418z" style="fill:#f6bb00" class="fil10"/>
   <path d="m104.296 250.988c-1.2942-.0168-2.9828-.0008-4.277-.0176-6.8346-9.1745-16.0497-2.184-21.1958-4.8233 5.4914 7.9936 16.2588 10.3114 21.4355 5.7379 1.3206.0536 2.6413.1071 3.9619.1607.0251-.3526.0503-.7051.0754-1.0577z" style="fill:#f6bb00" class="fil10"/>
   <path d="m82.5429 235.762c.0274-1.3242.467-2.9453 1.4277-4.0318-6.3276-9.5312 3.364-15.8444 2.6175-21.5794 5.6697 7.868 4.2153 18.7856-1.8375 22.1139-.8356 1.021-1.2378 2.2728-1.1867 3.7834-.3403-.0954-.6806-.1907-1.021-.2861z" style="fill:#f6bb00" class="fil10"/>
   <path d="m75.9285 225.242c.1743-1.3129.7913-2.8752 1.8668-3.8483-5.2298-10.175 5.1031-15.3727 4.9983-21.1551 4.7606 8.4491 2.1025 19.1376-4.2826 21.7729-.9438.922-1.4825 2.1213-1.5995 3.6282-.3277-.1326-.6553-.2652-.983-.3977z" style="fill:#f6bb00" class="fil10"/>
   <path d="m70.2099 213.039c.3991-1.2628 1.2774-2.6945 2.5053-3.4665-3.3877-10.9274 7.6895-14.256 8.5883-19.9691 3.2246 9.1462-1.2453 19.2125-7.9905 20.7015-1.0893.7445-1.8277 1.8324-2.204 3.2962-.2997-.1874-.5994-.3747-.8991-.5621z" style="fill:#f6bb00" class="fil10"/>
   <path d="m66.8193 201.156c.5444-1.2074 1.5846-2.5262 2.8945-3.1489-2.0829-11.2492 9.3082-13.2559 10.8707-18.8242 2.1298 9.4613-3.4896 18.9339-10.3629 19.6217-1.169.6116-2.0299 1.6054-2.5753 3.015-.2757-.2212-.5514-.4424-.827-.6636z" style="fill:#f6bb00" class="fil10"/>
   <path d="m65.2272 187.942c.7161-1.1141 1.9389-2.2657 3.3261-2.689-.4059-11.4332 11.1564-11.7429 13.5208-17.0209.7153 9.6716-6.2361 18.2149-13.1357 17.8845-1.2463.433-2.244 1.2894-2.9908 2.6034-.2401-.2593-.4802-.5186-.7204-.778z" style="fill:#f6bb00" class="fil10"/>
   <path d="m65.1787 173.558c.9435-.9295 2.3895-1.7841 3.8358-1.8921 2.1169-11.2429 13.4646-9.0037 16.9312-13.633-1.4279 9.5923-10.087 16.3988-16.7454 14.56-1.3109.1485-2.4724.7647-3.4898 1.8825-.1772-.3058-.3545-.6116-.5318-.9174z" style="fill:#f6bb00" class="fil10"/>
   <path d="m66.6686 160.433c1.101-.7361 2.6816-1.3045 4.1225-1.1395 4.1871-10.6466 14.9138-6.3197 19.1868-10.2171-3.2009 9.1546-12.9825 14.217-19.1781 11.1626-1.3156-.0999-2.572.2876-3.7808 1.1948-.1168-.3336-.2336-.6672-.3504-1.0008z" style="fill:#f6bb00" class="fil10"/>
   <path d="m71.7048 148.314c1.1811-.5992 2.8184-.9745 4.2292-.6383 5.4304-10.0695 15.5626-4.4908 20.2711-7.8491-4.2728 8.7061-14.5897 12.5623-20.3755 8.7888-1.2942-.2566-2.5879-.0221-3.8966.7341-.0761-.3452-.1521-.6904-.2282-1.0355z" style="fill:#f6bb00" class="fil10"/>
   <path d="m78.1016 136.601c1.258-.4143 2.9331-.5384 4.2772.006 6.8862-9.1358 16.0616-2.0934 21.2226-4.7036-5.5364 7.9625-16.3167 10.2195-21.4675 5.6169-1.2408-.4487-2.555-.412-3.9628.1383-.0231-.3527-.0463-.7054-.0695-1.0581z" style="fill:#f6bb00" class="fil10"/>
   <path d="m86.0676 127.083c1.2889-.3046 2.9685-.2843 4.2607.3742 7.6461-8.51 16.1822-.7049 21.5484-2.8617-6.2004 7.4571-17.1348 8.7788-21.8709 3.7505-1.1975-.5537-2.5101-.6301-3.9599-.2029.0072-.3534.0144-.7068.0217-1.0601z" style="fill:#f6bb00" class="fil10"/>
   <path d="m96.1838 117.92c1.3122-.1799 2.9821.001 4.2054.7801 8.4251-7.7395 16.1754.8464 21.7233-.7872-6.8853 6.8297-17.896 7.0995-22.1293 1.6411-1.1391-.6657-2.4384-.8673-3.9224-.5808.041-.351.082-.7021.123-1.0532z" style="fill:#f6bb00" class="fil10"/>
   <path d="m89.9467 127.32c.6883-1.1315 1.1884-2.735.9617-4.1676 10.4574-4.6396 5.6748-15.1709 9.3854-19.6071-9.009 3.5903-13.6475 13.58-10.3303 19.6389.1562 1.3101-.1771 2.582-1.0317 3.8286l1.0149.3072z" style="fill:#f6bb00" class="fil10"/>
   <path d="m97.3668 115.665c1.4841-.3372 3.2144-1.233 4.2318-2.6255 12.0763 5.3325 17.1106-7.6459 23.7234-8.0776-10.0644-4.9326-22.0389-.6912-24.4913 7.273-.9706 1.2286-2.2932 1.9949-4.0039 2.2817.18.3828.36.7656.54 1.1484z" style="fill:#f6bb00" class="fil10"/>
   <path d="m81.7134 136.423c.5027-1.2253.7457-2.8873.2976-4.2668 9.6024-6.2191 3.2304-15.8721 6.201-20.8343-8.336 4.956-11.3539 15.5486-7.1293 21.0136.3593 1.2695.2292 2.5779-.4198 3.9429.3502.0482.7003.0964 1.0505.1446z" style="fill:#f6bb00" class="fil10"/>
   <path d="m74.7395 147.704c.3242-1.2842.3293-2.9639-.3096-4.2659 8.625-7.5163.9502-16.1697 3.1881-21.5026-7.5502 6.0866-9.0376 16.9998-4.0816 21.8115.5355 1.2059.5919 2.5194.1428 3.9626.3534-.002.7069-.004 1.0603-.006z" style="fill:#f6bb00" class="fil10"/>
   <path d="m69.1238 159.746c.2326-1.3039.1191-2.9797-.6101-4.2334 8.0725-8.1067-.1943-16.1964 1.6613-21.674-7.1014 6.6047-7.8143 17.5956-2.5308 22.0453.6193 1.165.7684 2.4713.4223 3.9426.3525-.0269.7049-.0537 1.0573-.0805z" style="fill:#f6bb00" class="fil10"/>
   <path d="m67.64 186.029c-.3141-1.2867-1.0952-2.7737-2.2689-3.6258 4.1079-10.6774-6.7231-14.7363-7.2393-20.4967-3.8266 8.9112-.037 19.2528 6.594 21.1878 1.0373.8153 1.7016 1.95 1.9796 3.4356.3116-.167.6231-.3339.9346-.5009z" style="fill:#f6bb00" class="fil10"/>
   <path d="m66.8671 172.79c-.0596-1.3231-.5385-2.9331-1.5254-3.9959 6.094-9.6823-3.7483-15.7579-3.1416-21.5094-5.4766 8.0037-3.7571 18.8826 2.3749 22.0627.8602 1.0004 1.2926 2.2421 1.2783 3.7534.3379-.1036.6759-.2072 1.0138-.3108z" style="fill:#f6bb00" class="fil10"/>
   <path d="m69.1782 199.272c-.4844-1.2326-1.4585-2.601-2.7362-3.2874 2.6338-11.1331-8.6448-13.6977-9.9314-19.3362-2.5928 9.345 2.5539 19.0826 9.385 20.1078 1.1376.6683 1.9485 1.7032 2.4239 3.138.2862-.2074.5724-.4148.8587-.6222z" style="fill:#f6bb00" class="fil10"/>
   <path d="m71.7161 211.53c-.6185-1.1712-1.7387-2.4228-3.0847-2.9628 1.3794-11.357-10.1145-12.6515-12.0202-18.1119-1.5374 9.5754 4.6602 18.6803 11.5629 18.9394 1.2048.5377 2.1258 1.4761 2.7578 2.8491.2614-.238.5228-.4759.7842-.7138z" style="fill:#f6bb00" class="fil10"/>
   <path d="m77.3697 222.627c-.8313-1.0311-2.1703-2.0451-3.5949-2.3175-.8202-11.411-12.3492-10.4812-15.265-15.4759.324 9.6927 8.15 17.4427 14.9746 16.3757 1.2855.2971 2.3691 1.0418 3.2523 2.2684.211-.2836.422-.5671.633-.8507z" style="fill:#f6bb00" class="fil10"/>
   <path d="m83.6921 232.844c-.9781-.8929-2.4556-1.6918-3.905-1.7448-2.5432-11.1541-13.7974-8.4847-17.4377-12.9787 1.7919 9.531 10.7038 16.003 17.2873 13.9122 1.3157.0985 2.4998.67 3.5589 1.7483.1655-.3123.331-.6246.4965-.937z" style="fill:#f6bb00" class="fil10"/>
   <path d="m92.4991 243.47c-1.0773-.7703-2.6393-1.3879-4.0848-1.2682-3.8513-10.7726-14.7083-6.784-18.8571-10.8134 2.9124 9.2504 12.5306 14.617 18.8188 11.7582 1.3181-.0587 2.5617.368 3.7415 1.3127.1272-.3298.2544-.6595.3816-.9893z" style="fill:#f6bb00" class="fil10"/>
  </g>
  <path style="fill:#f6bb00" class="fil10" d="m135.854 272.141v.0009c.008 2.3666-3.2708 2.4032-3.168 0v-.0004-.1571-.0004-.1571-.0004-.1571-.0004-.1571-.0004-.1571-.0004-.1571-.0004-.1571-.0004-.1571-.0004-.1571-.0004-.1571-.0004-.1571-.0004-.1571-.0004-.1571-.0004-.1571-.0004-.1571-.0004-.1571-.0004-.1571-.0004-.1571-.0004-.1571-.0004-.1571-.0004-.1571-.0004-.1571-.0004-.1571-.0004-.1571-.0004-.1571-.0004-.1571-.0004-.1571-.0004-.1571-.0004-.1571-.0004-.1571-.0004-.1571-.0004-.1571-.0003-.1572-.0003-.1572-.0003-.1572-.0003-.1572-.0003-.1572-.0003-.1572-.0003-.1572-.0003-.1572-.0003-.1572-.0003-.1572-.0003-.1572-.0003-.1572-.0003-.1572-.0003-.1572-.0003-.1572-.0003-.1572-.0003-.1572-.0003-.1572-.0003-.1572-.0003-.1572-.0003-.1572-.0003-.1572-.0003-.1572-.0003-.1572-.0003-.1572-.0003-.1572-.0003-.1572-.0003-.1572-.0003-.1572-.0003-.1572-.0003-.1572-.0003-.1572c-.008-2.3669 3.2715-2.4039 3.1683-.0002.0001 3.3598.0003 6.7197.0002 10.0799l-.0005-.0006z"/>
  <path style="fill:#f6bb00" class="fil10" d="m140.224 272.141v.0009c.008 2.3666-3.2708 2.4032-3.168 0v-.0004-.1571-.0004-.1571-.0004-.1571-.0004-.1571-.0004-.1571-.0004-.1571-.0004-.1571-.0004-.1571-.0004-.1571-.0004-.1571-.0004-.1571-.0004-.1571-.0004-.1571-.0004-.1571-.0004-.1571-.0004-.1571-.0004-.1571-.0004-.1571-.0004-.1571-.0004-.1571-.0004-.1571-.0004-.1571-.0004-.1571-.0004-.1571-.0004-.1571-.0004-.1571-.0004-.1571-.0004-.1571-.0004-.1571-.0004-.1571-.0004-.1571-.0004-.1571-.0003-.1572-.0003-.1572-.0003-.1572-.0003-.1572-.0003-.1572-.0003-.1572-.0003-.1572-.0003-.1572-.0003-.1572-.0003-.1572-.0003-.1572-.0003-.1572-.0003-.1572-.0003-.1572-.0003-.1572-.0003-.1572-.0003-.1572-.0003-.1572-.0003-.1572-.0003-.1572-.0003-.1572-.0003-.1572-.0003-.1572-.0003-.1572-.0003-.1572-.0003-.1572-.0003-.1572-.0003-.1572-.0003-.1572-.0003-.1572-.0003-.1572-.0003-.1572c-.008-2.3669 3.2715-2.4039 3.1683-.0002.0001 3.3598.0003 6.7197.0002 10.0799l-.0005-.0006z"/>
  <path style="fill:#f6bb00" class="fil10" d="m144.594 272.141v.0009c.008 2.3666-3.2708 2.4032-3.168 0v-.0004-.1571-.0004-.1571-.0004-.1571-.0004-.1571-.0004-.1571-.0004-.1571-.0004-.1571-.0004-.1571-.0004-.1571-.0004-.1571-.0004-.1571-.0004-.1571-.0004-.1571-.0004-.1571-.0004-.1571-.0004-.1571-.0004-.1571-.0004-.1571-.0004-.1571-.0004-.1571-.0004-.1571-.0004-.1571-.0004-.1571-.0004-.1571-.0004-.1571-.0004-.1571-.0004-.1571-.0004-.1571-.0004-.1571-.0004-.1571-.0004-.1571-.0004-.1571-.0003-.1572-.0003-.1572-.0003-.1572-.0003-.1572-.0003-.1572-.0003-.1572-.0003-.1572-.0003-.1572-.0003-.1572-.0003-.1572-.0003-.1572-.0003-.1572-.0003-.1572-.0003-.1572-.0003-.1572-.0003-.1572-.0003-.1572-.0003-.1572-.0003-.1572-.0003-.1572-.0003-.1572-.0003-.1572-.0003-.1572-.0003-.1572-.0003-.1572-.0003-.1572-.0003-.1572-.0003-.1572-.0003-.1572-.0003-.1572-.0003-.1572-.0003-.1572c-.008-2.3669 3.2715-2.4039 3.1683-.0002.0001 3.3598.0003 6.7197.0002 10.0799l-.0005-.0006z"/>
  <path style="fill:#f6bb00" class="fil10" d="m148.964 272.141v.0009c.008 2.3666-3.2708 2.4032-3.168 0v-.0004-.1571-.0004-.1571-.0004-.1571-.0004-.1571-.0004-.1571-.0004-.1571-.0004-.1571-.0004-.1571-.0004-.1571-.0004-.1571-.0004-.1571-.0004-.1571-.0004-.1571-.0004-.1571-.0004-.1571-.0004-.1571-.0004-.1571-.0004-.1571-.0004-.1571-.0004-.1571-.0004-.1571-.0004-.1571-.0004-.1571-.0004-.1571-.0004-.1571-.0004-.1571-.0004-.1571-.0004-.1571-.0004-.1571-.0004-.1571-.0004-.1571-.0004-.1571-.0003-.1572-.0003-.1572-.0003-.1572-.0003-.1572-.0003-.1572-.0003-.1572-.0003-.1572-.0003-.1572-.0003-.1572-.0003-.1572-.0003-.1572-.0003-.1572-.0003-.1572-.0003-.1572-.0003-.1572-.0003-.1572-.0003-.1572-.0003-.1572-.0003-.1572-.0003-.1572-.0003-.1572-.0003-.1572-.0003-.1572-.0003-.1572-.0003-.1572-.0003-.1572-.0003-.1572-.0003-.1572-.0003-.1572-.0003-.1572-.0003-.1572-.0003-.1572c-.008-2.3669 3.2715-2.4039 3.1683-.0002.0001 3.3598.0003 6.7197.0002 10.0799l-.0005-.0006z"/>
  <path style="fill:#f6bb00" class="fil10" d="m153.334 272.141v.0009c.008 2.3666-3.2708 2.4032-3.168 0v-.0004-.1571-.0004-.1571-.0004-.1571-.0004-.1571-.0004-.1571-.0004-.1571-.0004-.1571-.0004-.1571-.0004-.1571-.0004-.1571-.0004-.1571-.0004-.1571-.0004-.1571-.0004-.1571-.0004-.1571-.0004-.1571-.0004-.1571-.0004-.1571-.0004-.1571-.0004-.1571-.0004-.1571-.0004-.1571-.0004-.1571-.0004-.1571-.0004-.1571-.0004-.1571-.0004-.1571-.0004-.1571-.0004-.1571-.0004-.1571-.0004-.1571-.0004-.1571-.0003-.1572-.0003-.1572-.0003-.1572-.0003-.1572-.0003-.1572-.0003-.1572-.0003-.1572-.0003-.1572-.0003-.1572-.0003-.1572-.0003-.1572-.0003-.1572-.0003-.1572-.0003-.1572-.0003-.1572-.0003-.1572-.0003-.1572-.0003-.1572-.0003-.1572-.0003-.1572-.0003-.1572-.0003-.1572-.0003-.1572-.0003-.1572-.0003-.1572-.0003-.1572-.0003-.1572-.0003-.1572-.0003-.1572-.0003-.1572-.0003-.1572-.0003-.1572c-.008-2.3669 3.2715-2.4039 3.1683-.0002.00010 3.3598.0003 6.7197.0002 10.0799l-.0005-.0006z"/>
  <path style="fill:#f6bb00" class="fil10" d="m157.704 272.141v.0009c.008 2.3666-3.2708 2.4032-3.168 0v-.0004-.1571-.0004-.1571-.0004-.1571-.0004-.1571-.0004-.1571-.0004-.1571-.0004-.1571-.0004-.1571-.0004-.1571-.0004-.1571-.0004-.1571-.0004-.1571-.0004-.1571-.0004-.1571-.0004-.1571-.0004-.1571-.0004-.1571-.0004-.1571-.0004-.1571-.0004-.1571-.0004-.1571-.0004-.1571-.0004-.1571-.0004-.1571-.0004-.1571-.0004-.1571-.0004-.1571-.0004-.1571-.0004-.1571-.0004-.1571-.0004-.1571-.0004-.1571-.0003-.1572-.0003-.1572-.0003-.1572-.0003-.1572-.0003-.1572-.0003-.1572-.0003-.1572-.0003-.1572-.0003-.1572-.0003-.1572-.0003-.1572-.0003-.1572-.0003-.1572-.0003-.1572-.0003-.1572-.0003-.1572-.0003-.1572-.0003-.1572-.0003-.1572-.0003-.1572-.0003-.1572-.0003-.1572-.0003-.1572-.0003-.1572-.0003-.1572-.0003-.1572-.0003-.1572-.0003-.1572-.0003-.1572-.0003-.1572-.0003-.1572-.0003-.1572c-.008-2.3669 3.2715-2.4039 3.1683-.0002.0001 3.3598.0003 6.7197.0002 10.0799l-.0005-.0006z"/>
  <path style="fill:#f6bb00" class="fil10" d="m162.074 272.141v.0009c.008 2.3666-3.2708 2.4032-3.168 0v-.0004-.1571-.0004-.1571-.0004-.1571-.0004-.1571-.0004-.1571-.0004-.1571-.0004-.1571-.0004-.1571-.0004-.1571-.0004-.1571-.0004-.1571-.0004-.1571-.0004-.1571-.0004-.1571-.0004-.1571-.0004-.1571-.0004-.1571-.0004-.1571-.0004-.1571-.0004-.1571-.0004-.1571-.0004-.1571-.0004-.1571-.0004-.1571-.0004-.1571-.0004-.1571-.0004-.1571-.0004-.1571-.0004-.1571-.0004-.1571-.0004-.1571-.0004-.1571-.0003-.1572-.0003-.1572-.0003-.1572-.0003-.1572-.0003-.1572-.0003-.1572-.0003-.1572-.0003-.1572-.0003-.1572-.0003-.1572-.0003-.1572-.0003-.1572-.0003-.1572-.0003-.1572-.0003-.1572-.0003-.1572-.0003-.1572-.0003-.1572-.0003-.1572-.0003-.1572-.0003-.1572-.0003-.1572-.0003-.1572-.0003-.1572-.0003-.1572-.0003-.1572-.0003-.1572-.0003-.1572-.0003-.1572-.0003-.1572-.0003-.1572-.0003-.1572c-.008-2.3669 3.2715-2.4039 3.1683-.0002.0001 3.3598.0003 6.7197.0002 10.0799l-.0005-.0006z"/>
  <path style="fill:#f6bb00" class="fil10" d="m166.444 272.141v.0009c.008 2.3666-3.2708 2.4032-3.168 0v-.0004-.1571-.0004-.1571-.0004-.1571-.0004-.1571-.0004-.1571-.0004-.1571-.0004-.1571-.0004-.1571-.0004-.1571-.0004-.1571-.0004-.1571-.0004-.1571-.0004-.1571-.0004-.1571-.0004-.1571-.0004-.1571-.0004-.1571-.0004-.1571-.0004-.1571-.0004-.1571-.0004-.1571-.0004-.1571-.0004-.1571-.0004-.1571-.0004-.1571-.0004-.1571-.0004-.1571-.0004-.1571-.0004-.1571-.0004-.1571-.0004-.1571-.0004-.1571-.0003-.1572-.0003-.1572-.0003-.1572-.0003-.1572-.0003-.1572-.0003-.1572-.0003-.1572-.0003-.1572-.0003-.1572-.0003-.1572-.0003-.1572-.0003-.1572-.0003-.1572-.0003-.1572-.0003-.1572-.0003-.1572-.0003-.1572-.0003-.1572-.0003-.1572-.0003-.1572-.0003-.1572-.0003-.1572-.0003-.1572-.0003-.1572-.0003-.1572-.0003-.1572-.0003-.1572-.0003-.1572-.0003-.1572-.0003-.1572-.0003-.1572-.0003-.1572c-.008-2.3669 3.2715-2.4039 3.1683-.0002.0001 3.3598.0003 6.7197.0002 10.0799l-.0005-.0006z"/>
 </g>
</svg>
